<svg xmlns="http://www.w3.org/2000/svg" viewBox="0 0 100 100" fill="none" stroke="#60444e" stroke-width=".9" stroke-linecap="round" stroke-linejoin="round"><g transform="rotate(-18 32 48)"><path d="M21 16h24l-3 28q-10 15-18 0zM23 30h20M32 52v29m-12 5q12-8 24 0z"/><path d="M26 34v6q1 6 4 7m-7-27h18"/></g><g transform="rotate(18 69 48)"><path d="M57 16h24l-3 28q-10 15-18 0zM59 30h20M69 52v29m-12 5q12-8 24 0z"/><path d="M63 34v6q1 6 4 7m-7-27h18"/></g><path d="M46 9l-2-5m9 5 2-5M49 3V0M45 22l5-5 5 5-5 6zM13 49l-5 2m78-3 5 2M26 91h48"/><circle cx="32" cy="33" r="1"/><circle cx="69" cy="32" r="1"/></svg>